<svg xmlns="http://www.w3.org/2000/svg" xmlns:xlink="http://www.w3.org/1999/xlink" width="2000" zoomAndPan="magnify" viewBox="0 0 1500 449.999984" height="600" preserveAspectRatio="xMidYMid meet" version="1.0"><defs><g/><clipPath id="a50b9e2c76"><path d="M 14.726562 45 L 389.160156 45 L 389.160156 419.433594 L 14.726562 419.433594 Z M 14.726562 45 " clip-rule="nonzero"/></clipPath><clipPath id="e0293a409c"><path d="M 201.941406 45 C 98.546875 45 14.726562 128.820312 14.726562 232.214844 C 14.726562 335.613281 98.546875 419.433594 201.941406 419.433594 C 305.339844 419.433594 389.160156 335.613281 389.160156 232.214844 C 389.160156 128.820312 305.339844 45 201.941406 45 " clip-rule="nonzero"/></clipPath><linearGradient x1="-0.000000214423" gradientTransform="matrix(1.462624, 0, 0, 1.462624, 14.726894, 44.999998)" y1="0" x2="255.999987" gradientUnits="userSpaceOnUse" y2="0" id="1b14eb08bb"><stop stop-opacity="1" stop-color="rgb(65.098572%, 65.098572%, 65.098572%)" offset="0"/><stop stop-opacity="1" stop-color="rgb(65.234375%, 65.234375%, 65.234375%)" offset="0.0078125"/><stop stop-opacity="1" stop-color="rgb(65.507507%, 65.507507%, 65.507507%)" offset="0.015625"/><stop stop-opacity="1" stop-color="rgb(65.78064%, 65.78064%, 65.78064%)" offset="0.0234375"/><stop stop-opacity="1" stop-color="rgb(66.052246%, 66.052246%, 66.052246%)" offset="0.03125"/><stop stop-opacity="1" stop-color="rgb(66.325378%, 66.325378%, 66.325378%)" offset="0.0390625"/><stop stop-opacity="1" stop-color="rgb(66.598511%, 66.598511%, 66.598511%)" offset="0.046875"/><stop stop-opacity="1" stop-color="rgb(66.871643%, 66.871643%, 66.871643%)" offset="0.0546875"/><stop stop-opacity="1" stop-color="rgb(67.14325%, 67.14325%, 67.14325%)" offset="0.0625"/><stop stop-opacity="1" stop-color="rgb(67.416382%, 67.416382%, 67.416382%)" offset="0.0703125"/><stop stop-opacity="1" stop-color="rgb(67.689514%, 67.689514%, 67.689514%)" offset="0.078125"/><stop stop-opacity="1" stop-color="rgb(67.961121%, 67.961121%, 67.961121%)" offset="0.0859375"/><stop stop-opacity="1" stop-color="rgb(68.234253%, 68.234253%, 68.234253%)" offset="0.09375"/><stop stop-opacity="1" stop-color="rgb(68.507385%, 68.507385%, 68.507385%)" offset="0.101562"/><stop stop-opacity="1" stop-color="rgb(68.778992%, 68.778992%, 68.778992%)" offset="0.109375"/><stop stop-opacity="1" stop-color="rgb(69.052124%, 69.052124%, 69.052124%)" offset="0.117188"/><stop stop-opacity="1" stop-color="rgb(69.325256%, 69.325256%, 69.325256%)" offset="0.125"/><stop stop-opacity="1" stop-color="rgb(69.596863%, 69.596863%, 69.596863%)" offset="0.132812"/><stop stop-opacity="1" stop-color="rgb(69.869995%, 69.869995%, 69.869995%)" offset="0.140625"/><stop stop-opacity="1" stop-color="rgb(70.143127%, 70.143127%, 70.143127%)" offset="0.148438"/><stop stop-opacity="1" stop-color="rgb(70.41626%, 70.41626%, 70.41626%)" offset="0.15625"/><stop stop-opacity="1" stop-color="rgb(70.687866%, 70.687866%, 70.687866%)" offset="0.164062"/><stop stop-opacity="1" stop-color="rgb(70.960999%, 70.960999%, 70.960999%)" offset="0.171875"/><stop stop-opacity="1" stop-color="rgb(71.234131%, 71.234131%, 71.234131%)" offset="0.179688"/><stop stop-opacity="1" stop-color="rgb(71.505737%, 71.505737%, 71.505737%)" offset="0.1875"/><stop stop-opacity="1" stop-color="rgb(71.77887%, 71.77887%, 71.77887%)" offset="0.195312"/><stop stop-opacity="1" stop-color="rgb(72.052002%, 72.052002%, 72.052002%)" offset="0.203125"/><stop stop-opacity="1" stop-color="rgb(72.323608%, 72.323608%, 72.323608%)" offset="0.210938"/><stop stop-opacity="1" stop-color="rgb(72.596741%, 72.596741%, 72.596741%)" offset="0.21875"/><stop stop-opacity="1" stop-color="rgb(72.869873%, 72.869873%, 72.869873%)" offset="0.226562"/><stop stop-opacity="1" stop-color="rgb(73.141479%, 73.141479%, 73.141479%)" offset="0.234375"/><stop stop-opacity="1" stop-color="rgb(73.414612%, 73.414612%, 73.414612%)" offset="0.242188"/><stop stop-opacity="1" stop-color="rgb(73.687744%, 73.687744%, 73.687744%)" offset="0.25"/><stop stop-opacity="1" stop-color="rgb(73.959351%, 73.959351%, 73.959351%)" offset="0.257812"/><stop stop-opacity="1" stop-color="rgb(74.232483%, 74.232483%, 74.232483%)" offset="0.265625"/><stop stop-opacity="1" stop-color="rgb(74.505615%, 74.505615%, 74.505615%)" offset="0.273438"/><stop stop-opacity="1" stop-color="rgb(74.778748%, 74.778748%, 74.778748%)" offset="0.28125"/><stop stop-opacity="1" stop-color="rgb(75.050354%, 75.050354%, 75.050354%)" offset="0.289062"/><stop stop-opacity="1" stop-color="rgb(75.323486%, 75.323486%, 75.323486%)" offset="0.296875"/><stop stop-opacity="1" stop-color="rgb(75.596619%, 75.596619%, 75.596619%)" offset="0.304688"/><stop stop-opacity="1" stop-color="rgb(75.868225%, 75.868225%, 75.868225%)" offset="0.3125"/><stop stop-opacity="1" stop-color="rgb(76.141357%, 76.141357%, 76.141357%)" offset="0.320312"/><stop stop-opacity="1" stop-color="rgb(76.41449%, 76.41449%, 76.41449%)" offset="0.328125"/><stop stop-opacity="1" stop-color="rgb(76.686096%, 76.686096%, 76.686096%)" offset="0.335938"/><stop stop-opacity="1" stop-color="rgb(76.959229%, 76.959229%, 76.959229%)" offset="0.34375"/><stop stop-opacity="1" stop-color="rgb(77.232361%, 77.232361%, 77.232361%)" offset="0.351562"/><stop stop-opacity="1" stop-color="rgb(77.503967%, 77.503967%, 77.503967%)" offset="0.359375"/><stop stop-opacity="1" stop-color="rgb(77.7771%, 77.7771%, 77.7771%)" offset="0.367188"/><stop stop-opacity="1" stop-color="rgb(78.050232%, 78.050232%, 78.050232%)" offset="0.375"/><stop stop-opacity="1" stop-color="rgb(78.321838%, 78.321838%, 78.321838%)" offset="0.382812"/><stop stop-opacity="1" stop-color="rgb(78.594971%, 78.594971%, 78.594971%)" offset="0.390625"/><stop stop-opacity="1" stop-color="rgb(78.868103%, 78.868103%, 78.868103%)" offset="0.398438"/><stop stop-opacity="1" stop-color="rgb(79.141235%, 79.141235%, 79.141235%)" offset="0.40625"/><stop stop-opacity="1" stop-color="rgb(79.412842%, 79.412842%, 79.412842%)" offset="0.414062"/><stop stop-opacity="1" stop-color="rgb(79.685974%, 79.685974%, 79.685974%)" offset="0.421875"/><stop stop-opacity="1" stop-color="rgb(79.959106%, 79.959106%, 79.959106%)" offset="0.429688"/><stop stop-opacity="1" stop-color="rgb(80.230713%, 80.230713%, 80.230713%)" offset="0.4375"/><stop stop-opacity="1" stop-color="rgb(80.503845%, 80.503845%, 80.503845%)" offset="0.445312"/><stop stop-opacity="1" stop-color="rgb(80.776978%, 80.776978%, 80.776978%)" offset="0.453125"/><stop stop-opacity="1" stop-color="rgb(81.048584%, 81.048584%, 81.048584%)" offset="0.460938"/><stop stop-opacity="1" stop-color="rgb(81.321716%, 81.321716%, 81.321716%)" offset="0.46875"/><stop stop-opacity="1" stop-color="rgb(81.594849%, 81.594849%, 81.594849%)" offset="0.476562"/><stop stop-opacity="1" stop-color="rgb(81.866455%, 81.866455%, 81.866455%)" offset="0.484375"/><stop stop-opacity="1" stop-color="rgb(82.139587%, 82.139587%, 82.139587%)" offset="0.492188"/><stop stop-opacity="1" stop-color="rgb(82.41272%, 82.41272%, 82.41272%)" offset="0.5"/><stop stop-opacity="1" stop-color="rgb(82.684326%, 82.684326%, 82.684326%)" offset="0.507812"/><stop stop-opacity="1" stop-color="rgb(82.957458%, 82.957458%, 82.957458%)" offset="0.515625"/><stop stop-opacity="1" stop-color="rgb(83.230591%, 83.230591%, 83.230591%)" offset="0.523438"/><stop stop-opacity="1" stop-color="rgb(83.503723%, 83.503723%, 83.503723%)" offset="0.53125"/><stop stop-opacity="1" stop-color="rgb(83.77533%, 83.77533%, 83.77533%)" offset="0.539062"/><stop stop-opacity="1" stop-color="rgb(84.048462%, 84.048462%, 84.048462%)" offset="0.546875"/><stop stop-opacity="1" stop-color="rgb(84.321594%, 84.321594%, 84.321594%)" offset="0.554688"/><stop stop-opacity="1" stop-color="rgb(84.593201%, 84.593201%, 84.593201%)" offset="0.5625"/><stop stop-opacity="1" stop-color="rgb(84.866333%, 84.866333%, 84.866333%)" offset="0.570312"/><stop stop-opacity="1" stop-color="rgb(85.139465%, 85.139465%, 85.139465%)" offset="0.578125"/><stop stop-opacity="1" stop-color="rgb(85.411072%, 85.411072%, 85.411072%)" offset="0.585938"/><stop stop-opacity="1" stop-color="rgb(85.684204%, 85.684204%, 85.684204%)" offset="0.59375"/><stop stop-opacity="1" stop-color="rgb(85.957336%, 85.957336%, 85.957336%)" offset="0.601562"/><stop stop-opacity="1" stop-color="rgb(86.228943%, 86.228943%, 86.228943%)" offset="0.609375"/><stop stop-opacity="1" stop-color="rgb(86.502075%, 86.502075%, 86.502075%)" offset="0.617188"/><stop stop-opacity="1" stop-color="rgb(86.775208%, 86.775208%, 86.775208%)" offset="0.625"/><stop stop-opacity="1" stop-color="rgb(87.046814%, 87.046814%, 87.046814%)" offset="0.632812"/><stop stop-opacity="1" stop-color="rgb(87.319946%, 87.319946%, 87.319946%)" offset="0.640625"/><stop stop-opacity="1" stop-color="rgb(87.593079%, 87.593079%, 87.593079%)" offset="0.648438"/><stop stop-opacity="1" stop-color="rgb(87.866211%, 87.866211%, 87.866211%)" offset="0.65625"/><stop stop-opacity="1" stop-color="rgb(88.137817%, 88.137817%, 88.137817%)" offset="0.664062"/><stop stop-opacity="1" stop-color="rgb(88.41095%, 88.41095%, 88.41095%)" offset="0.671875"/><stop stop-opacity="1" stop-color="rgb(88.684082%, 88.684082%, 88.684082%)" offset="0.679688"/><stop stop-opacity="1" stop-color="rgb(88.955688%, 88.955688%, 88.955688%)" offset="0.6875"/><stop stop-opacity="1" stop-color="rgb(89.228821%, 89.228821%, 89.228821%)" offset="0.695312"/><stop stop-opacity="1" stop-color="rgb(89.501953%, 89.501953%, 89.501953%)" offset="0.703125"/><stop stop-opacity="1" stop-color="rgb(89.77356%, 89.77356%, 89.77356%)" offset="0.710938"/><stop stop-opacity="1" stop-color="rgb(90.046692%, 90.046692%, 90.046692%)" offset="0.71875"/><stop stop-opacity="1" stop-color="rgb(90.319824%, 90.319824%, 90.319824%)" offset="0.726562"/><stop stop-opacity="1" stop-color="rgb(90.591431%, 90.591431%, 90.591431%)" offset="0.734375"/><stop stop-opacity="1" stop-color="rgb(90.864563%, 90.864563%, 90.864563%)" offset="0.742188"/><stop stop-opacity="1" stop-color="rgb(91.137695%, 91.137695%, 91.137695%)" offset="0.75"/><stop stop-opacity="1" stop-color="rgb(91.409302%, 91.409302%, 91.409302%)" offset="0.757812"/><stop stop-opacity="1" stop-color="rgb(91.682434%, 91.682434%, 91.682434%)" offset="0.765625"/><stop stop-opacity="1" stop-color="rgb(91.955566%, 91.955566%, 91.955566%)" offset="0.773438"/><stop stop-opacity="1" stop-color="rgb(92.228699%, 92.228699%, 92.228699%)" offset="0.78125"/><stop stop-opacity="1" stop-color="rgb(92.500305%, 92.500305%, 92.500305%)" offset="0.789062"/><stop stop-opacity="1" stop-color="rgb(92.773438%, 92.773438%, 92.773438%)" offset="0.796875"/><stop stop-opacity="1" stop-color="rgb(93.04657%, 93.04657%, 93.04657%)" offset="0.804688"/><stop stop-opacity="1" stop-color="rgb(93.318176%, 93.318176%, 93.318176%)" offset="0.8125"/><stop stop-opacity="1" stop-color="rgb(93.591309%, 93.591309%, 93.591309%)" offset="0.820312"/><stop stop-opacity="1" stop-color="rgb(93.864441%, 93.864441%, 93.864441%)" offset="0.828125"/><stop stop-opacity="1" stop-color="rgb(94.136047%, 94.136047%, 94.136047%)" offset="0.835938"/><stop stop-opacity="1" stop-color="rgb(94.40918%, 94.40918%, 94.40918%)" offset="0.84375"/><stop stop-opacity="1" stop-color="rgb(94.682312%, 94.682312%, 94.682312%)" offset="0.851562"/><stop stop-opacity="1" stop-color="rgb(94.953918%, 94.953918%, 94.953918%)" offset="0.859375"/><stop stop-opacity="1" stop-color="rgb(95.227051%, 95.227051%, 95.227051%)" offset="0.867188"/><stop stop-opacity="1" stop-color="rgb(95.500183%, 95.500183%, 95.500183%)" offset="0.875"/><stop stop-opacity="1" stop-color="rgb(95.77179%, 95.77179%, 95.77179%)" offset="0.882812"/><stop stop-opacity="1" stop-color="rgb(96.044922%, 96.044922%, 96.044922%)" offset="0.890625"/><stop stop-opacity="1" stop-color="rgb(96.318054%, 96.318054%, 96.318054%)" offset="0.898438"/><stop stop-opacity="1" stop-color="rgb(96.591187%, 96.591187%, 96.591187%)" offset="0.90625"/><stop stop-opacity="1" stop-color="rgb(96.862793%, 96.862793%, 96.862793%)" offset="0.914062"/><stop stop-opacity="1" stop-color="rgb(97.135925%, 97.135925%, 97.135925%)" offset="0.921875"/><stop stop-opacity="1" stop-color="rgb(97.409058%, 97.409058%, 97.409058%)" offset="0.929688"/><stop stop-opacity="1" stop-color="rgb(97.680664%, 97.680664%, 97.680664%)" offset="0.9375"/><stop stop-opacity="1" stop-color="rgb(97.953796%, 97.953796%, 97.953796%)" offset="0.945312"/><stop stop-opacity="1" stop-color="rgb(98.226929%, 98.226929%, 98.226929%)" offset="0.953125"/><stop stop-opacity="1" stop-color="rgb(98.498535%, 98.498535%, 98.498535%)" offset="0.960938"/><stop stop-opacity="1" stop-color="rgb(98.771667%, 98.771667%, 98.771667%)" offset="0.96875"/><stop stop-opacity="1" stop-color="rgb(99.0448%, 99.0448%, 99.0448%)" offset="0.976562"/><stop stop-opacity="1" stop-color="rgb(99.316406%, 99.316406%, 99.316406%)" offset="0.984375"/><stop stop-opacity="1" stop-color="rgb(99.589539%, 99.589539%, 99.589539%)" offset="0.992188"/><stop stop-opacity="1" stop-color="rgb(99.862671%, 99.862671%, 99.862671%)" offset="1"/></linearGradient></defs><g clip-path="url(#a50b9e2c76)"><g clip-path="url(#e0293a409c)"><path fill="url(#1b14eb08bb)" d="M 14.726562 45 L 14.726562 419.433594 L 389.160156 419.433594 L 389.160156 45 Z M 14.726562 45 " fill-rule="nonzero"/></g></g><path fill="#000000" d="M 206.875 245.601562 C 172.285156 258.191406 140.363281 267.5 117.242188 272.222656 C 95.96875 276.550781 82.15625 277.019531 80.539062 272.582031 C 78.980469 268.300781 89.039062 260.222656 106.855469 250.386719 C 108.628906 249.40625 109.636719 247.4375 109.359375 245.429688 C 109.355469 245.394531 109.351562 245.359375 109.347656 245.328125 C 108.890625 241.988281 105.320312 240.058594 102.296875 241.539062 C 56.351562 264.039062 27.882812 284.585938 31.617188 294.84375 C 35.441406 305.34375 72.121094 302.40625 123.75 289.320312 C 125.621094 288.84375 127.609375 289.492188 128.808594 291.007812 C 153.183594 321.734375 195.363281 334.933594 234.246094 320.785156 C 283.386719 302.902344 294.875 267.082031 296.011719 240.582031 C 296.667969 225.304688 291.664062 214.746094 206.875 245.601562 Z M 206.875 245.601562 " fill-opacity="1" fill-rule="nonzero"/><path fill="#000000" d="M 372.789062 170.6875 C 368.886719 159.960938 330.789062 163.246094 277.507812 177.015625 C 253.472656 144.507812 210.078125 130.207031 170.15625 144.734375 C 128.949219 159.730469 114.621094 188.484375 110.1875 211.988281 C 107.101562 228.339844 109.664062 242.980469 194.664062 212.050781 C 228.714844 199.660156 260.171875 190.453125 283.203125 185.667969 C 305.085938 181.113281 319.355469 180.554688 321 185.074219 C 322.441406 189.035156 313.941406 196.238281 298.542969 205.097656 C 295.132812 207.0625 293.410156 211 294.171875 214.859375 C 294.183594 214.921875 294.195312 214.984375 294.207031 215.046875 C 295.359375 220.980469 301.917969 224.117188 307.324219 221.40625 C 350.195312 199.925781 376.375 180.539062 372.789062 170.6875 Z M 372.789062 170.6875 " fill-opacity="1" fill-rule="nonzero"/><g fill="#d9d9d9" fill-opacity="1"><g transform="translate(499.778532, 290.49969)"><g><path d="M 83.875 -28.578125 C 88.695312 -28.578125 93.375 -29.304688 97.90625 -30.765625 C 102.445312 -32.222656 105.785156 -33.625 107.921875 -34.96875 L 111.109375 -37.15625 L 124.5625 -10.25 C 124.113281 -9.914062 123.492188 -9.46875 122.703125 -8.90625 C 121.921875 -8.34375 120.097656 -7.304688 117.234375 -5.796875 C 114.378906 -4.285156 111.328125 -2.96875 108.078125 -1.84375 C 104.828125 -0.726562 100.566406 0.273438 95.296875 1.171875 C 90.035156 2.066406 84.601562 2.515625 79 2.515625 C 66.113281 2.515625 53.898438 -0.644531 42.359375 -6.96875 C 30.816406 -13.300781 21.515625 -22.015625 14.453125 -33.109375 C 7.390625 -44.203125 3.859375 -56.195312 3.859375 -69.09375 C 3.859375 -78.832031 5.929688 -88.1875 10.078125 -97.15625 C 14.234375 -106.125 19.753906 -113.800781 26.640625 -120.1875 C 33.535156 -126.570312 41.578125 -131.671875 50.765625 -135.484375 C 59.953125 -139.296875 69.363281 -141.203125 79 -141.203125 C 87.96875 -141.203125 96.234375 -140.132812 103.796875 -138 C 111.359375 -135.875 116.707031 -133.75 119.84375 -131.625 L 124.5625 -128.421875 L 111.109375 -101.53125 C 110.328125 -102.195312 109.148438 -103.003906 107.578125 -103.953125 C 106.015625 -104.910156 102.878906 -106.171875 98.171875 -107.734375 C 93.460938 -109.304688 88.695312 -110.09375 83.875 -110.09375 C 76.257812 -110.09375 69.425781 -108.859375 63.375 -106.390625 C 57.320312 -103.929688 52.53125 -100.6875 49 -96.65625 C 45.46875 -92.625 42.773438 -88.28125 40.921875 -83.625 C 39.078125 -78.976562 38.15625 -74.242188 38.15625 -69.421875 C 38.15625 -58.890625 42.101562 -49.445312 50 -41.09375 C 57.90625 -32.75 69.195312 -28.578125 83.875 -28.578125 Z M 83.875 -28.578125 "/></g></g></g><g fill="#d9d9d9" fill-opacity="1"><g transform="translate(643.153306, 290.49969)"><g><path d="M 80.515625 -138.671875 L 136.484375 0 L 102.53125 0 L 92.28125 -27.734375 L 39.5 -27.734375 L 29.25 0 L -4.703125 0 L 51.265625 -138.671875 Z M 81.53125 -55.46875 L 66.0625 -95.8125 L 65.71875 -95.8125 L 50.265625 -55.46875 Z M 81.53125 -55.46875 "/></g></g></g><g fill="#d9d9d9" fill-opacity="1"><g transform="translate(791.738622, 290.49969)"><g><path d="M 41.6875 -138.671875 L 41.6875 -27.734375 L 89.421875 -27.734375 L 89.421875 0 L 10.078125 0 L 10.078125 -138.671875 Z M 41.6875 -138.671875 "/></g></g></g><g fill="#d9d9d9" fill-opacity="1"><g transform="translate(903.513973, 290.49969)"><g><path d="M 89.421875 -138.671875 L 89.421875 -110.9375 L 41.6875 -110.9375 L 41.6875 -83.375 L 87.40625 -83.375 L 87.40625 -55.640625 L 41.6875 -55.640625 L 41.6875 -27.734375 L 89.421875 -27.734375 L 89.421875 0 L 10.078125 0 L 10.078125 -138.671875 Z M 89.421875 -138.671875 "/></g></g></g><g fill="#d9d9d9" fill-opacity="1"><g transform="translate(1017.810549, 290.49969)"><g><path d="M 61.1875 -141.203125 C 68.695312 -141.203125 76.035156 -140.109375 83.203125 -137.921875 C 90.378906 -135.734375 95.703125 -133.578125 99.171875 -131.453125 L 104.21875 -128.09375 L 91.4375 -102.875 C 90.4375 -103.539062 89.035156 -104.40625 87.234375 -105.46875 C 85.441406 -106.539062 82.082031 -107.972656 77.15625 -109.765625 C 72.226562 -111.554688 67.632812 -112.453125 63.375 -112.453125 C 58.101562 -112.453125 54.035156 -111.332031 51.171875 -109.09375 C 48.316406 -106.851562 46.890625 -103.828125 46.890625 -100.015625 C 46.890625 -98.109375 47.5625 -96.34375 48.90625 -94.71875 C 50.257812 -93.09375 52.5625 -91.351562 55.8125 -89.5 C 59.0625 -87.65625 61.914062 -86.171875 64.375 -85.046875 C 66.84375 -83.929688 70.65625 -82.253906 75.8125 -80.015625 C 84.769531 -76.203125 92.414062 -71.015625 98.75 -64.453125 C 105.082031 -57.898438 108.25 -50.476562 108.25 -42.1875 C 108.25 -34.226562 106.816406 -27.28125 103.953125 -21.34375 C 101.097656 -15.40625 97.175781 -10.753906 92.1875 -7.390625 C 87.207031 -4.035156 81.691406 -1.546875 75.640625 0.078125 C 69.585938 1.703125 63.03125 2.515625 55.96875 2.515625 C 49.914062 2.515625 43.976562 1.898438 38.15625 0.671875 C 32.332031 -0.554688 27.457031 -2.09375 23.53125 -3.9375 C 19.613281 -5.789062 16.082031 -7.613281 12.9375 -9.40625 C 9.800781 -11.207031 7.503906 -12.722656 6.046875 -13.953125 L 3.859375 -15.796875 L 19.671875 -42.359375 C 21.015625 -41.234375 22.863281 -39.800781 25.21875 -38.0625 C 27.570312 -36.332031 31.742188 -34.007812 37.734375 -31.09375 C 43.734375 -28.1875 49.03125 -26.734375 53.625 -26.734375 C 66.957031 -26.734375 73.625 -31.269531 73.625 -40.34375 C 73.625 -42.25 73.144531 -44.015625 72.1875 -45.640625 C 71.238281 -47.265625 69.5625 -48.890625 67.15625 -50.515625 C 64.75 -52.140625 62.617188 -53.425781 60.765625 -54.375 C 58.921875 -55.332031 55.894531 -56.789062 51.6875 -58.75 C 47.488281 -60.707031 44.378906 -62.191406 42.359375 -63.203125 C 33.953125 -67.347656 27.453125 -72.53125 22.859375 -78.75 C 18.265625 -84.96875 15.96875 -91.664062 15.96875 -98.84375 C 15.96875 -111.28125 20.5625 -121.445312 29.75 -129.34375 C 38.9375 -137.25 49.414062 -141.203125 61.1875 -141.203125 Z M 61.1875 -141.203125 "/></g></g></g><g fill="#d9d9d9" fill-opacity="1"><g transform="translate(1147.570702, 290.49969)"><g><path d="M 1.34375 -110.9375 L 1.34375 -138.671875 L 98.84375 -138.671875 L 98.84375 -110.9375 L 65.890625 -110.9375 L 65.890625 0 L 34.296875 0 L 34.296875 -110.9375 Z M 1.34375 -110.9375 "/></g></g></g><g fill="#d9d9d9" fill-opacity="1"><g transform="translate(1264.556593, 290.49969)"><g><path d="M 41.6875 -138.671875 L 41.6875 0 L 10.078125 0 L 10.078125 -138.671875 Z M 41.6875 -138.671875 "/></g></g></g><g fill="#d9d9d9" fill-opacity="1"><g transform="translate(1333.13485, 290.49969)"><g><path d="M 43.875 29.078125 L 36.3125 17.65625 C 36.644531 17.207031 37.09375 16.644531 37.65625 15.96875 C 38.21875 15.289062 39.394531 14.023438 41.1875 12.171875 C 42.976562 10.328125 44.710938 8.703125 46.390625 7.296875 C 48.078125 5.898438 50.039062 4.640625 52.28125 3.515625 C 54.519531 2.398438 56.59375 1.84375 58.5 1.84375 L 58.5 1.171875 C 42.132812 -1.960938 28.9375 -10.03125 18.90625 -23.03125 C 8.875 -36.03125 3.859375 -51.492188 3.859375 -69.421875 C 3.859375 -89.585938 10.582031 -106.59375 24.03125 -120.4375 C 37.476562 -134.28125 53.785156 -141.203125 72.953125 -141.203125 C 92.222656 -141.203125 108.523438 -134.28125 121.859375 -120.4375 C 135.203125 -106.59375 141.875 -89.585938 141.875 -69.421875 C 141.875 -52.953125 137.445312 -38.441406 128.59375 -25.890625 C 119.738281 -13.335938 108.082031 -4.875 93.625 -0.5 L 93.625 0.171875 C 94.300781 0.171875 97.269531 0.703125 102.53125 1.765625 C 107.800781 2.828125 112.003906 3.359375 115.140625 3.359375 C 119.398438 3.359375 123.265625 2.601562 126.734375 1.09375 C 130.210938 -0.414062 132.625 -1.898438 133.96875 -3.359375 L 135.984375 -5.71875 L 145.90625 15.625 C 145.675781 16.1875 145.3125 16.890625 144.8125 17.734375 C 144.3125 18.578125 143.160156 20.0625 141.359375 22.1875 C 139.566406 24.3125 137.578125 26.210938 135.390625 27.890625 C 133.210938 29.578125 130.300781 31.09375 126.65625 32.4375 C 123.019531 33.78125 119.125 34.453125 114.96875 34.453125 C 108.132812 34.453125 99.785156 32.265625 89.921875 27.890625 C 80.066406 23.523438 71.550781 21.34375 64.375 21.34375 C 60.457031 21.34375 56.789062 21.988281 53.375 23.28125 C 49.957031 24.570312 47.519531 25.890625 46.0625 27.234375 Z M 37.984375 -69.421875 C 37.984375 -64.046875 38.597656 -59.03125 39.828125 -54.375 C 41.066406 -49.726562 43.003906 -45.5 45.640625 -41.6875 C 48.273438 -37.875 51.914062 -34.875 56.5625 -32.6875 C 61.21875 -30.507812 66.679688 -29.421875 72.953125 -29.421875 C 84.722656 -29.421875 93.460938 -33.226562 99.171875 -40.84375 C 104.890625 -48.46875 107.75 -57.992188 107.75 -69.421875 C 107.75 -80.742188 104.832031 -90.238281 99 -97.90625 C 93.175781 -105.582031 84.492188 -109.421875 72.953125 -109.421875 C 61.523438 -109.421875 52.835938 -105.554688 46.890625 -97.828125 C 40.953125 -90.097656 37.984375 -80.628906 37.984375 -69.421875 Z M 37.984375 -69.421875 "/></g></g></g></svg>