<svg xmlns="http://www.w3.org/2000/svg" x="0px" y="0px" width="100" height="100" viewBox="0,0,256,256">
<g fill="#000000" fill-rule="nonzero" stroke="none" stroke-width="1" stroke-linecap="butt" stroke-linejoin="miter" stroke-miterlimit="10" stroke-dasharray="" stroke-dashoffset="0" font-family="none" font-weight="none" font-size="none" text-anchor="none" style="mix-blend-mode: normal"><path d="M0,256v-256h256v256z" id="bgRectangle"></path></g><g fill="#ffffff" fill-rule="nonzero" stroke="none" stroke-width="1" stroke-linecap="butt" stroke-linejoin="miter" stroke-miterlimit="10" stroke-dasharray="" stroke-dashoffset="0" font-family="none" font-weight="none" font-size="none" text-anchor="none" style="mix-blend-mode: normal"><g transform="scale(5.33333,5.33333)"><path d="M15.777,12.927l-9.14,-4.748c-0.258,-0.119 -0.524,-0.174 -0.784,-0.174c-0.984,0 -1.871,0.792 -1.871,1.873v23.365c0,0.774 0.425,1.486 1.107,1.854l9.6,5.72c0.241,0.13 0.495,0.189 0.741,0.189c0.82,0 1.568,-0.658 1.568,-1.569v-24.598c0.002,-0.822 -0.475,-1.568 -1.221,-1.912zM43.845,14.529c-0.292,-0.966 -0.991,-1.724 -1.924,-2.094l-7.337,-4.187c-1.158,-0.551 -2.551,-0.155 -3.222,0.888l-8.61,12.538l8.582,12.952l12.012,-17.211c0.619,-0.837 0.8,-1.89 0.499,-2.886zM32.09,37.038l9.14,3.808c1.318,0.549 2.77,-0.419 2.77,-1.846v-19l-0.018,-0.001zM19,20v12l10.935,4.14z"></path></g></g>
</svg>